<?xml version="1.0" encoding="UTF-8"?>
<svg xmlns="http://www.w3.org/2000/svg" xmlns:xlink="http://www.w3.org/1999/xlink" width="375pt" height="374.999991pt" viewBox="0 0 375 374.999991" version="1.2">
<defs>
<clipPath id="clip1">
  <path d="M 11.753906 84 L 250 84 L 250 291 L 11.753906 291 Z M 11.753906 84 "/>
</clipPath>
<clipPath id="clip2">
  <path d="M 268 104 L 363.503906 104 L 363.503906 270 L 268 270 Z M 268 104 "/>
</clipPath>
</defs>
<g id="surface1">
<g clip-path="url(#clip1)" clip-rule="nonzero">
<path style=" stroke:none;fill-rule:nonzero;fill:rgb(100%,100%,100%);fill-opacity:1;" d="M 210.722656 84.300781 L 50.242188 84.300781 C 29.074219 84.300781 11.753906 101.617188 11.753906 122.785156 L 11.753906 252.476562 C 11.753906 273.644531 29.074219 290.960938 50.242188 290.960938 L 210.722656 290.960938 C 231.886719 290.960938 249.207031 273.644531 249.207031 252.476562 L 249.207031 122.785156 C 249.207031 101.234375 231.886719 84.300781 210.722656 84.300781 Z M 210.722656 84.300781 "/>
</g>
<g clip-path="url(#clip2)" clip-rule="nonzero">
<path style=" stroke:none;fill-rule:nonzero;fill:rgb(100%,100%,100%);fill-opacity:1;" d="M 335.027344 105.464844 C 332.71875 105.851562 330.410156 107.003906 328.484375 108.160156 L 268.449219 142.796875 L 268.449219 232.082031 L 328.871094 266.714844 C 340.03125 273.257812 353.882812 269.410156 360.425781 258.25 C 362.351562 254.785156 363.503906 250.9375 363.503906 246.703125 L 363.503906 127.785156 C 363.503906 113.546875 350.035156 102.003906 335.027344 105.464844 Z M 335.027344 105.464844 "/>
</g>
</g>
</svg>
